<?xml version="1.0" standalone="no"?>
<!DOCTYPE svg PUBLIC "-//W3C//DTD SVG 20010904//EN"
 "http://www.w3.org/TR/2001/REC-SVG-20010904/DTD/svg10.dtd">
<svg version="1.0" xmlns="http://www.w3.org/2000/svg"
 width="1280.000000pt" height="1132.000000pt" viewBox="0 0 1280.000000 1132.000000"
 preserveAspectRatio="xMidYMid meet">
<g transform="translate(0.000000,1132.000000) scale(0.100000,-0.100000)"
fill="#000000" stroke="none">
<path d="M12149 10904 c-2977 -1854 -3140 -1957 -3127 -1969 27 -25 1761
-1118 1775 -1119 9 -1 362 614 990 1727 536 951 973 1730 971 1733 -3 2 -277
-165 -609 -372z"/>
<path d="M11870 11045 c-820 -219 -2548 -681 -4115 -1100 -671 -179 -1229
-329 -1240 -334 -25 -11 -77 4 750 -216 363 -97 669 -174 680 -172 11 2 909
392 1995 867 2146 936 2271 990 2291 989 30 -1 -214 -117 -3565 -1705 -330
-157 -601 -286 -603 -288 -5 -5 417 -1168 427 -1180 5 -4 15 25 24 65 9 41 61
280 115 532 54 253 103 463 107 467 5 5 860 509 1899 1120 1040 612 1894 1116
1900 1121 5 6 3 9 -5 8 -8 0 -305 -78 -660 -174z"/>
<path d="M8920 8816 c0 -3 -57 -224 -126 -492 -69 -267 -123 -488 -121 -491 6
-5 732 626 732 635 -1 7 -432 323 -467 343 -10 5 -18 7 -18 5z"/>
<path d="M8240 7843 c-41 -8 -77 -16 -79 -18 -6 -6 21 -135 29 -140 4 -2 45 2
91 11 146 26 132 17 124 81 -4 31 -9 62 -12 70 -6 16 -54 15 -153 -4z"/>
<path d="M7750 7729 c-47 -11 -98 -17 -114 -14 -17 3 -101 -13 -210 -39 -224
-55 -271 -70 -290 -89 -8 -8 -56 -27 -106 -43 -101 -30 -100 -30 -71 -106 l10
-26 93 29 c51 16 100 26 108 24 21 -7 474 107 494 124 9 8 66 24 127 36 60 12
112 25 116 28 3 3 2 27 -1 52 -7 43 -9 45 -39 44 -18 0 -70 -9 -117 -20z"/>
<path d="M6504 7361 c-112 -54 -310 -167 -320 -183 -7 -11 62 -118 77 -118 6
0 43 20 83 44 40 24 132 74 204 110 73 36 132 68 132 70 0 18 -55 126 -64 126
-6 0 -57 -22 -112 -49z"/>
<path d="M5890 6915 c-64 -63 -121 -115 -128 -115 -14 0 -100 -122 -152 -215
-52 -95 -103 -223 -95 -243 3 -8 -2 -46 -12 -83 -9 -38 -14 -71 -11 -74 9 -9
90 -27 95 -21 2 2 11 30 19 63 9 32 21 63 29 69 7 5 32 52 54 104 42 97 92
185 148 259 18 24 33 53 33 64 0 13 39 60 105 124 l105 104 -31 39 c-18 22
-35 40 -37 40 -3 0 -58 -52 -122 -115z"/>
<path d="M5420 5795 c-18 -34 -7 -268 19 -405 11 -56 22 -104 24 -107 2 -2 34
5 70 14 77 20 75 16 52 133 -8 41 -18 136 -21 210 -7 171 -11 180 -79 180 -45
0 -53 -3 -65 -25z"/>
<path d="M5563 5155 c-18 -8 -33 -18 -33 -22 0 -12 116 -245 131 -265 13 -17
17 -16 57 8 24 14 42 29 40 32 -135 279 -132 275 -195 247z"/>
<path d="M5760 4814 c-30 -21 -57 -38 -59 -40 -19 -16 327 -390 352 -381 7 3
27 -7 46 -21 l34 -25 35 37 34 38 -31 32 c-17 18 -31 36 -31 42 0 5 -45 54
-100 109 -56 55 -126 133 -158 173 -31 39 -59 72 -62 72 -3 0 -30 -16 -60 -36z"/>
<path d="M6455 4178 l-28 -41 32 -26 c17 -14 31 -31 31 -37 0 -14 404 -254
429 -254 9 0 71 105 71 121 0 4 -35 27 -77 50 -43 23 -137 78 -210 121 -72 43
-140 78 -150 78 -11 0 -28 7 -39 15 -27 20 -28 20 -59 -27z"/>
<path d="M7032 3839 c-13 -23 -20 -45 -15 -49 9 -10 257 -140 265 -140 9 0 48
69 48 83 0 11 -247 147 -266 147 -5 0 -20 -19 -32 -41z"/>
<path d="M7433 3626 l-32 -64 215 -116 c118 -64 226 -116 239 -116 19 0 30 10
45 41 37 71 30 77 -205 205 -116 62 -215 113 -220 114 -6 0 -25 -29 -42 -64z"/>
<path d="M8203 3189 c-22 -34 -24 -42 -12 -49 36 -21 99 -71 99 -80 0 -5 60
-54 133 -109 72 -54 158 -122 191 -149 32 -28 64 -48 70 -46 7 3 63 -47 125
-111 l112 -115 39 31 c30 24 37 36 30 48 -5 9 -56 63 -114 121 -58 57 -106
112 -106 120 0 33 -370 320 -412 320 -11 0 -39 14 -63 30 -24 17 -48 30 -54
30 -6 0 -23 -18 -38 -41z"/>
<path d="M2523 3184 c-19 -9 -17 -109 3 -128 9 -9 32 -16 55 -16 58 0 182 -27
279 -61 135 -47 123 -49 154 20 15 34 25 65 22 70 -9 14 -138 61 -240 87 -89
23 -249 40 -273 28z"/>
<path d="M2074 3065 c-27 -20 -63 -42 -81 -50 -36 -17 -105 -108 -151 -200
-44 -90 -104 -255 -98 -272 4 -8 -14 -79 -39 -157 -25 -79 -45 -146 -45 -150
0 -7 34 -22 74 -32 23 -5 26 1 71 138 26 79 55 152 65 163 9 11 30 54 45 95
40 107 91 207 136 266 21 28 39 58 39 67 0 8 20 28 45 44 24 15 44 33 45 40 0
16 -40 83 -50 83 -4 0 -30 -16 -56 -35z"/>
<path d="M3142 2935 l-22 -45 43 -26 c23 -15 78 -51 123 -80 44 -30 85 -54 90
-54 5 0 21 18 37 39 l27 39 -62 45 c-74 52 -195 127 -206 127 -4 0 -18 -20
-30 -45z"/>
<path d="M3468 2720 c-21 -27 -38 -54 -38 -58 0 -5 42 -45 93 -88 50 -43 128
-114 173 -156 45 -43 87 -78 94 -78 7 0 29 -12 48 -26 l34 -27 36 36 36 37
-27 28 c-15 15 -27 35 -27 43 0 22 -353 340 -376 338 -5 0 -26 -22 -46 -49z"/>
<path d="M9078 2403 c-27 -19 -48 -39 -48 -44 0 -5 28 -56 62 -112 34 -56 82
-147 106 -202 24 -55 45 -101 47 -103 1 -1 31 8 66 21 57 20 64 25 61 47 -3
32 -128 285 -181 368 -22 34 -46 62 -53 61 -7 0 -34 -16 -60 -36z"/>
<path d="M4157 2072 c-33 -35 -33 -42 -2 -72 14 -13 25 -30 25 -38 0 -21 344
-332 367 -332 10 0 93 93 93 104 0 3 -69 65 -152 139 -84 74 -164 146 -177
161 -14 14 -31 26 -39 26 -7 0 -25 9 -39 20 -34 26 -44 25 -76 -8z"/>
<path d="M1560 2037 c0 -2 -27 -109 -60 -237 -34 -128 -57 -236 -53 -240 10
-9 102 -40 119 -40 7 0 17 15 23 33 16 49 111 419 111 433 0 7 -28 22 -62 33
-61 21 -78 24 -78 18z"/>
<path d="M4661 1626 c-18 -19 -32 -39 -30 -45 6 -17 211 -201 225 -201 12 0
64 55 64 69 0 7 -170 167 -211 198 -13 11 -21 7 -48 -21z"/>
<path d="M9392 1650 c-18 -4 -35 -10 -38 -13 -3 -2 0 -33 5 -68 5 -35 8 -210
7 -389 -2 -324 -2 -325 -29 -399 -14 -41 -25 -76 -24 -77 11 -9 90 -45 93 -42
10 11 53 140 64 193 7 33 19 68 29 79 14 16 16 49 16 256 0 191 -3 240 -14
254 -8 10 -22 61 -31 114 -17 104 -19 106 -78 92z"/>
<path d="M4992 1317 c-23 -23 -42 -47 -42 -53 0 -13 77 -87 232 -223 146 -127
165 -134 211 -76 36 45 29 71 -31 121 -26 21 -106 92 -179 156 -72 65 -135
118 -140 118 -5 0 -28 -19 -51 -43z"/>
<path d="M1315 1243 c-30 -45 -97 -113 -112 -113 -8 0 -33 -13 -56 -29 -85
-57 -167 -90 -295 -116 -42 -9 -80 -21 -84 -28 -4 -7 -51 -13 -125 -17 l-118
-5 -3 -54 -3 -53 138 2 c76 1 153 1 170 1 57 -1 221 47 304 88 82 41 159 95
159 112 0 4 29 45 65 89 36 44 65 85 65 90 0 9 -69 60 -81 60 -4 0 -15 -12
-24 -27z"/>
<path d="M0 896 l0 -73 113 -5 c61 -3 115 -3 119 1 3 3 8 35 10 71 l3 65 -40
7 c-22 4 -77 7 -122 7 l-83 1 0 -74z"/>
<path d="M5675 753 c-14 -21 -25 -41 -25 -45 0 -4 25 -22 55 -40 30 -18 58
-40 61 -50 9 -29 423 -255 449 -244 8 3 77 -22 154 -54 76 -33 146 -60 153
-60 13 0 38 58 38 87 0 5 -64 36 -141 69 -82 34 -144 66 -146 75 -2 8 -48 37
-101 63 -53 27 -148 77 -209 112 -62 35 -122 64 -134 64 -11 0 -40 14 -64 30
-24 17 -48 30 -54 30 -6 0 -22 -17 -36 -37z"/>
<path d="M9124 489 c-50 -56 -178 -131 -336 -197 l-27 -11 22 -65 c15 -46 26
-66 38 -66 23 0 152 54 226 96 64 35 213 150 213 163 0 11 -95 101 -106 101
-6 0 -19 -10 -30 -21z"/>
<path d="M6741 244 c-11 -38 -17 -72 -13 -76 18 -18 404 -108 461 -108 26 0
28 3 37 65 7 46 7 68 0 74 -6 4 -45 14 -86 21 -68 11 -333 74 -365 86 -10 4
-20 -15 -34 -62z"/>
<path d="M8391 179 c-75 -12 -120 -15 -132 -9 -10 6 -65 6 -141 0 -67 -5 -176
-10 -240 -10 -67 0 -119 -4 -123 -10 -3 -6 -50 -10 -106 -10 l-99 0 0 -49 0
-48 53 -7 c28 -3 73 -6 99 -6 33 0 50 -5 56 -16 8 -15 25 -16 143 -11 192 9
350 26 366 38 7 7 70 20 139 30 70 10 129 21 132 23 6 7 -19 106 -26 105 -4
-1 -58 -10 -121 -20z"/>
</g>
</svg>
