<?xml version="1.0" standalone="no"?>
<!DOCTYPE svg PUBLIC "-//W3C//DTD SVG 20010904//EN"
 "http://www.w3.org/TR/2001/REC-SVG-20010904/DTD/svg10.dtd">
<svg version="1.0" xmlns="http://www.w3.org/2000/svg"
 width="1280.000000pt" height="603.000000pt" viewBox="0 0 1280.000000 603.000000"
 preserveAspectRatio="xMidYMid meet">
<metadata>
Created by potrace 1.15, written by Peter Selinger 2001-2017
</metadata>
<g transform="translate(0.000000,603.000000) scale(0.100000,-0.100000)"
fill="#000000" stroke="none">
<path d="M2452 5729 c4 -28 -27 -37 -122 -32 -36 1 -79 2 -97 2 -17 0 -34 5
-38 11 -10 16 -45 12 -76 -11 -22 -16 -33 -18 -43 -10 -17 14 -226 24 -226 11
0 -13 -37 -13 -45 0 -3 6 -15 10 -25 10 -10 0 -32 8 -48 17 -26 15 -34 15 -55
4 -16 -8 -39 -11 -64 -6 -51 8 -61 -4 -69 -84 -9 -79 -18 -85 -22 -13 -2 32
-5 64 -7 72 -7 23 -94 21 -117 -2 -10 -10 -26 -18 -35 -18 -22 0 -98 35 -107
48 -6 10 -55 -3 -84 -22 -8 -5 -20 -2 -30 6 -37 31 -139 29 -183 -4 -40 -30
-67 -30 -97 0 -26 26 -26 26 -97 7 -56 -14 -108 -11 -132 7 -13 11 -162 2
-179 -10 -5 -4 -17 -22 -28 -40 -16 -29 -19 -61 -21 -240 -2 -133 0 -211 7
-219 7 -8 41 -14 92 -15 l81 -2 -79 -5 c-74 -6 -79 -8 -83 -30 -2 -13 2 -30 8
-38 25 -30 28 -297 5 -419 -8 -42 7 -52 79 -56 l60 -3 -71 -9 -71 -8 -1 -33
c-1 -18 -7 -64 -15 -101 -7 -40 -12 -126 -11 -204 2 -221 -4 -198 56 -203 l53
-3 -52 -2 c-48 -2 -52 -4 -58 -32 -8 -37 2 -70 21 -70 8 0 14 -5 14 -11 0 -5
-5 -7 -10 -4 -17 11 -22 -21 -13 -84 6 -37 6 -66 0 -76 -6 -11 -5 -39 4 -79 8
-33 13 -68 11 -76 -7 -47 -6 -92 3 -98 5 -4 30 -9 55 -13 l45 -6 -41 -2 c-75
-2 -79 -10 -78 -168 1 -76 4 -168 9 -205 5 -44 4 -68 -3 -68 -7 0 -9 -62 -3
-100 1 -3 31 -5 68 -4 l68 1 -61 -4 c-57 -4 -62 -6 -67 -29 -2 -13 0 -27 4
-30 15 -9 10 -40 -12 -68 -11 -14 -16 -26 -10 -26 14 0 14 -43 0 -57 -8 -8 -8
-17 -1 -29 6 -11 7 -27 1 -42 -9 -23 9 -73 31 -87 6 -3 8 -37 5 -80 l-5 -73
32 -11 c17 -6 49 -11 71 -11 66 0 30 -19 -43 -22 l-65 -3 -1 -71 c-1 -45 -8
-85 -20 -109 -16 -35 -16 -38 -1 -47 9 -5 17 -17 17 -26 0 -10 5 -23 10 -28 8
-8 6 -32 -5 -80 -8 -38 -17 -93 -18 -123 l-2 -53 65 6 c45 4 60 3 50 -4 -8 -5
-39 -10 -67 -10 -48 0 -53 -2 -59 -26 -10 -40 14 -129 42 -159 20 -22 23 -30
12 -36 -9 -6 -13 -36 -14 -106 -1 -54 -4 -117 -8 -140 -9 -51 5 -61 97 -70 81
-7 86 -13 11 -13 -35 0 -68 -6 -79 -13 -16 -12 -16 -18 -6 -47 9 -27 8 -36 -3
-49 -27 -30 -71 -211 -48 -197 5 3 8 -18 7 -47 -1 -28 4 -67 11 -87 7 -19 13
-50 14 -67 0 -27 4 -33 23 -34 17 -1 15 -3 -8 -8 -30 -6 -30 -7 -32 -79 -1
-39 -6 -95 -12 -123 -12 -55 -4 -179 11 -179 5 0 7 -8 4 -18 -9 -26 19 -77 62
-112 36 -29 40 -31 125 -29 48 1 90 6 93 10 3 5 11 6 17 2 25 -16 230 -13 278
4 36 12 53 14 76 5 23 -7 34 -7 42 1 9 9 14 9 19 0 6 -9 22 -10 60 -4 28 4 54
5 58 2 3 -3 20 -7 37 -8 18 -1 46 -4 62 -7 43 -6 143 14 161 32 12 12 14 28 9
76 -9 74 1 71 15 -5 11 -57 29 -79 66 -79 12 0 27 -7 34 -15 16 -19 64 -19 80
0 9 11 16 12 25 5 7 -6 20 -8 29 -4 9 3 23 1 31 -6 14 -11 75 -10 233 6 42 4
62 2 62 -5 0 -6 16 -11 35 -11 19 0 35 5 35 11 0 5 5 7 11 3 32 -20 90 -15
133 10 41 24 46 25 107 14 35 -7 69 -19 76 -28 10 -12 15 -13 32 -3 12 7 39
13 60 13 22 0 43 6 48 13 4 6 13 46 19 87 l11 75 2 -77 c0 -42 6 -80 11 -83
25 -16 86 -20 138 -9 21 4 44 1 68 -11 27 -13 38 -14 49 -5 8 6 19 9 25 5 5
-3 15 -3 22 1 21 13 96 13 102 -1 5 -13 53 -15 73 -2 24 15 104 18 120 5 21
-17 205 -19 255 -2 20 7 39 10 42 7 3 -4 15 2 26 12 11 10 23 15 27 12 3 -4
12 -2 19 4 10 8 24 7 55 -5 23 -9 49 -14 59 -11 23 7 40 54 41 114 1 40 3 35
13 -31 7 -47 18 -85 29 -95 16 -16 18 -16 39 4 32 28 49 32 78 18 64 -33 108
-46 141 -42 48 5 99 29 99 46 0 11 3 11 15 1 8 -7 33 -14 54 -15 22 -2 53 -11
69 -21 29 -17 34 -16 81 11 21 12 30 11 75 -7 44 -17 68 -19 174 -15 100 3
126 7 142 22 18 16 23 17 46 5 49 -27 71 8 73 115 2 83 21 51 21 -35 0 -36 4
-70 8 -76 4 -7 25 -10 47 -9 22 2 45 -1 52 -7 15 -12 213 -17 230 -5 24 17 85
18 104 1 15 -13 30 -15 81 -9 35 4 92 7 128 6 35 0 67 3 70 7 3 4 16 13 28 20
20 11 27 11 40 0 31 -25 73 -42 80 -33 18 25 42 37 55 27 7 -6 28 -7 57 -2 27
5 46 5 48 -1 2 -5 14 -9 28 -9 33 0 58 42 65 110 l6 55 2 -58 c1 -77 29 -129
56 -107 13 11 61 6 78 -8 10 -9 17 -8 26 1 11 9 14 9 18 0 6 -18 23 -16 37 3
7 9 23 16 37 16 72 -1 105 -5 121 -16 19 -13 88 -9 88 5 0 12 47 12 54 0 3 -4
33 -11 66 -15 45 -5 68 -3 93 9 37 17 189 16 222 -2 16 -10 26 -7 50 11 30 23
64 22 79 -3 9 -13 68 5 84 26 6 9 12 35 13 57 1 23 5 52 9 66 6 19 8 9 9 -37
1 -34 4 -68 7 -77 6 -17 34 -22 34 -7 0 23 33 20 52 -5 15 -19 26 -24 42 -19
34 11 76 12 76 3 0 -4 9 -8 19 -8 11 0 23 -4 26 -10 4 -6 15 -4 29 5 20 13 24
13 29 2 4 -10 26 -14 78 -15 58 -1 75 2 85 16 8 10 13 12 14 5 0 -15 46 -18
54 -4 8 12 46 2 46 -11 0 -13 305 -3 342 11 20 8 28 7 32 -5 7 -19 43 -17 93
5 50 23 63 44 64 108 l1 48 9 -55 c5 -30 18 -66 28 -80 20 -27 30 -28 147 -17
57 5 74 4 84 -8 15 -18 44 -19 62 -2 14 12 76 37 96 37 6 0 13 -9 17 -19 5
-17 10 -18 41 -10 19 6 40 7 46 2 13 -7 62 -13 130 -16 20 0 48 5 63 13 22 12
31 12 58 0 41 -18 265 -14 312 5 31 13 35 24 35 105 0 52 3 70 10 60 5 -8 10
-39 10 -68 0 -104 27 -120 192 -118 66 1 122 7 130 13 48 39 159 35 220 -9 14
-10 21 -9 38 7 16 14 23 16 32 7 15 -15 61 -15 76 0 9 9 18 9 39 -1 15 -7 67
-15 116 -18 83 -6 88 -5 93 14 9 34 94 45 125 17 33 -30 46 -11 55 78 l7 83
12 -71 c12 -79 23 -99 62 -109 19 -4 29 -1 40 15 14 19 17 20 38 6 12 -8 31
-15 41 -15 11 -1 39 -2 64 -4 25 -2 51 2 58 7 26 19 50 16 55 -5 4 -14 10 -18
18 -13 7 4 38 6 70 5 34 -1 60 2 64 9 4 7 11 8 18 2 17 -13 102 -21 118 -11 8
4 16 3 20 -3 5 -8 23 -5 58 11 42 18 58 20 86 12 26 -7 37 -6 46 5 10 12 16
11 40 -3 16 -10 29 -21 29 -25 0 -14 28 -9 33 6 6 16 12 17 93 19 l50 2 12 62
c7 34 13 73 13 85 1 13 5 -10 9 -50 5 -40 13 -79 20 -87 7 -9 30 -15 55 -15
26 0 48 -6 55 -15 9 -11 33 -15 91 -15 72 0 81 2 100 25 27 30 63 38 108 25
19 -5 41 -6 50 -1 9 5 36 3 64 -4 68 -17 98 -10 94 24 -3 18 3 31 18 43 27 21
37 54 22 71 -31 33 -35 53 -21 93 17 46 11 113 -14 163 -13 26 -14 35 -4 38
16 6 15 28 -1 41 -10 9 -21 6 -45 -11 -28 -19 -32 -28 -33 -72 l-2 -50 -6 50
c-3 28 -2 52 2 53 4 2 3 10 -4 18 -9 11 -7 14 10 14 11 0 21 5 21 10 0 6 -24
10 -52 10 l-53 1 45 16 c33 11 52 13 77 5 45 -14 55 2 61 97 3 61 0 86 -13
115 -15 32 -16 43 -6 77 6 21 16 39 20 39 25 0 37 130 16 171 -14 26 -20 29
-67 29 -57 0 -61 10 -5 12 43 1 58 29 33 57 -8 9 -16 37 -18 61 -3 38 0 45 16
45 19 0 41 39 30 56 -3 5 1 9 8 9 7 0 1 8 -14 17 -21 14 -26 22 -21 44 3 14 0
36 -6 48 -12 22 -4 74 10 65 12 -7 11 10 -1 22 -6 6 -11 27 -12 48 -1 42 -10
52 -28 31 -18 -21 -29 -19 -23 5 3 11 0 20 -6 20 -6 0 -12 -22 -13 -52 -1 -48
-2 -49 -5 -13 -5 48 -27 75 -62 75 -25 0 -24 1 8 18 19 9 39 26 45 37 6 11 12
22 13 24 2 2 14 -8 27 -22 26 -28 50 -34 61 -17 4 6 11 7 17 4 6 -4 6 1 -1 14
-6 11 -11 30 -11 41 0 11 -6 26 -12 33 -7 7 -15 24 -16 37 -5 35 7 93 19 86 5
-4 9 3 9 15 0 12 5 31 11 42 6 12 11 44 10 73 0 28 3 65 8 83 12 42 -12 89
-49 95 -22 4 -22 4 5 5 30 2 30 3 29 54 -1 29 -7 67 -14 83 -18 44 -23 85 -12
98 5 7 13 32 16 57 4 25 10 60 13 78 3 20 1 32 -6 32 -13 0 -15 42 -2 55 5 6
12 24 16 42 6 28 3 33 -17 38 -56 14 -89 -20 -92 -97 -2 -47 -16 -31 -16 17 0
48 -24 84 -57 86 -10 0 -4 5 13 10 40 12 44 22 45 130 0 52 5 89 11 89 5 0 8
-17 7 -37 -4 -73 12 -163 31 -173 24 -13 73 -13 65 -1 -3 5 2 25 11 44 11 22
14 42 9 54 -5 10 -7 24 -6 31 1 6 -2 12 -6 12 -5 0 -9 8 -10 18 -7 123 -14
187 -24 192 -7 5 -2 14 15 27 21 17 24 26 19 57 -3 20 -10 36 -14 36 -5 0 -9
14 -9 30 0 28 -3 30 -37 31 l-38 2 40 6 c37 6 40 8 37 35 -2 17 -8 41 -13 54
-6 16 -4 40 6 75 15 53 15 113 -1 138 -10 16 -15 99 -5 99 10 0 10 54 0 67 -6
6 -9 24 -7 40 2 22 -1 29 -17 31 -43 5 -48 -9 -48 -134 l0 -119 -9 115 c-6 63
-14 120 -20 127 -5 7 -26 14 -46 16 l-37 4 42 1 c45 2 52 8 64 56 l7 31 1 -37
c1 -35 3 -38 31 -38 19 0 30 5 30 14 0 7 9 25 20 39 11 14 16 28 11 31 -18 11
-22 102 -6 146 9 24 13 51 10 58 -3 8 0 20 6 28 7 9 7 19 0 32 -6 11 -13 48
-15 83 -5 69 -13 100 -30 111 -6 4 1 8 15 8 15 0 29 7 33 15 3 8 1 15 -4 15
-5 0 -7 14 -3 31 3 16 1 40 -5 52 -5 12 -14 31 -18 42 -10 28 -7 204 4 218 9
12 9 17 -2 96 -7 52 -12 61 -35 61 -34 0 -41 -21 -41 -122 0 -59 -4 -98 -10
-98 -6 0 -10 38 -10 94 0 105 -10 126 -60 126 -44 0 -44 17 0 24 46 7 60 27
60 88 1 40 2 42 15 24 8 -11 15 -31 15 -44 0 -37 18 -62 46 -62 l25 0 -6 118
c-3 64 -5 132 -5 150 0 17 -4 32 -9 32 -7 0 -7 9 -1 25 7 19 6 26 -8 34 -16 9
-16 10 1 16 9 4 17 12 17 18 0 6 7 18 15 27 10 11 13 27 9 49 l-7 32 -82 -5
c-45 -3 -86 -2 -89 2 -4 3 -24 7 -44 8 -20 1 -55 7 -77 13 -36 10 -42 9 -61
-12 -26 -30 -61 -40 -69 -20 -4 11 -14 14 -34 10 -21 -5 -31 -2 -35 10 -5 13
-16 15 -62 9 -31 -3 -64 -11 -74 -16 -22 -12 -33 -54 -32 -125 0 -39 -2 -44
-8 -25 -4 14 -8 47 -9 73 -1 66 -36 102 -89 93 -20 -4 -57 -8 -82 -9 -25 -2
-50 -5 -55 -8 -10 -4 -87 -3 -130 2 -11 1 -29 8 -40 15 -28 20 -43 17 -76 -11
-30 -25 -37 -25 -95 1 -32 14 -112 10 -128 -7 -14 -12 -46 -11 -46 2 0 6 -12
10 -27 8 -16 -1 -36 2 -46 6 -12 5 -24 1 -37 -10 -12 -11 -26 -15 -37 -10 -10
4 -57 9 -105 12 -85 4 -87 4 -104 -22 -9 -14 -20 -51 -23 -83 l-7 -57 -5 55
c-6 65 -29 116 -50 111 -8 -1 -27 -4 -44 -6 -16 -2 -34 -5 -40 -6 -5 -2 -20 3
-33 10 -13 7 -35 10 -50 7 -15 -3 -49 -7 -77 -7 -29 -1 -57 -8 -68 -17 -14
-12 -26 -13 -62 -5 -24 5 -46 7 -47 2 -3 -8 -46 0 -128 22 -80 22 -254 16
-312 -11 -19 -9 -35 -10 -55 -3 -18 7 -37 7 -53 0 -14 -5 -38 -11 -53 -12 -40
-4 -44 -11 -55 -90 l-9 -70 -2 70 c-3 104 -5 106 -81 109 -36 2 -70 -1 -77 -6
-8 -6 -19 -2 -33 12 -17 17 -24 19 -36 9 -11 -9 -21 -9 -40 0 -48 21 -156 6
-168 -25 -4 -9 -13 -13 -23 -10 -10 3 -34 7 -53 8 -19 1 -43 11 -53 21 -16 16
-31 18 -125 14 -133 -6 -184 -15 -196 -34 -6 -11 -11 -12 -15 -4 -4 6 -18 12
-31 13 -14 2 -27 6 -30 9 -3 3 -20 9 -38 12 -25 5 -37 2 -52 -13 -11 -11 -26
-20 -34 -20 -21 0 -25 -9 -32 -81 -3 -35 -7 -65 -9 -67 -1 -1 -6 33 -9 77 -4
45 -11 83 -15 86 -5 2 -32 6 -62 9 -30 2 -84 8 -120 12 -70 7 -157 -7 -193
-32 -20 -13 -41 -9 -68 13 -14 13 -20 12 -48 -2 -18 -9 -39 -13 -48 -9 -10 3
-57 8 -105 10 -49 1 -94 8 -101 14 -10 8 -15 6 -20 -7 -6 -14 -9 -15 -15 -4
-7 10 -13 11 -30 1 -14 -7 -27 -8 -34 -2 -23 18 -75 22 -81 7 -3 -9 -19 -15
-40 -15 -19 0 -37 -4 -40 -9 -4 -5 -19 -3 -36 6 -41 20 -60 11 -61 -29 -1 -47
-10 -122 -15 -127 -2 -2 -4 27 -4 66 0 82 -5 89 -81 103 -102 20 -129 21 -162
5 -18 -8 -53 -14 -77 -13 -25 1 -50 -1 -57 -5 -14 -9 -63 2 -63 14 0 4 -61 7
-136 5 -119 -3 -139 -6 -164 -24 -27 -20 -31 -21 -64 -7 -23 10 -37 11 -41 4
-5 -7 -15 -5 -31 5 -29 20 -51 20 -89 0 -24 -12 -34 -13 -52 -3 -12 7 -20 16
-17 21 3 4 -3 8 -14 8 -34 0 -50 -28 -71 -125 -1 -3 -1 -17 -2 -32 0 -16 -9 7
-19 51 -19 83 -31 99 -68 89 -12 -3 -28 0 -36 6 -9 8 -54 11 -127 10 -63 -1
-170 2 -239 6 l-126 7 -29 -28 c-29 -28 -33 -29 -90 -22 -33 4 -71 8 -84 8
-13 0 -30 5 -37 11 -8 6 -22 8 -31 4 -10 -4 -35 -7 -57 -5 -21 1 -42 -3 -45
-9 -5 -7 -20 -4 -47 9 -21 12 -50 19 -64 18 -23 -3 -26 -8 -33 -73 -10 -93
-15 -103 -16 -29 -1 87 -9 93 -116 95 -49 1 -109 5 -133 9 -23 4 -44 4 -47 0
-7 -11 -84 -11 -105 0 -13 7 -21 7 -26 -1 -5 -8 -8 -8 -14 0 -5 9 -14 9 -36 0
-32 -13 -73 -12 -90 2 -8 6 -22 5 -38 -3 -21 -9 -34 -9 -60 0 -45 16 -93 15
-143 -4 -39 -15 -44 -15 -67 0 -30 19 -48 20 -64 4 -7 -7 -32 -13 -56 -14 -23
-1 -59 -9 -79 -19 -32 -15 -37 -23 -43 -63 l-8 -47 -8 44 c-4 24 -14 54 -23
67 -17 26 -84 49 -99 34 -5 -5 -28 -7 -52 -3 -33 4 -49 1 -71 -14 -15 -11 -33
-18 -40 -16 -6 2 -14 -1 -18 -6 -4 -7 -16 -1 -32 14 -15 13 -31 22 -35 19 -5
-3 -14 -1 -21 4 -14 12 -98 19 -112 10 -71 -43 -90 -49 -124 -42 -64 12 -84
13 -102 3 -12 -6 -20 -5 -24 1 -4 6 -10 8 -14 6 -4 -3 -17 4 -29 14 -24 23
-52 26 -70 8 -9 -9 -15 -9 -24 0 -18 18 -46 15 -78 -8 -15 -11 -44 -20 -66
-20 -22 0 -47 0 -57 -1 -23 0 -37 -37 -38 -102 l-1 -52 -13 67 c-7 36 -18 75
-24 86 -12 23 -52 38 -129 47 -52 7 -54 6 -50 -16z m1379 -563 c5 3 12 -2 15
-10 3 -9 10 -13 15 -10 5 3 9 1 9 -4 0 -17 -13 -22 -27 -10 -7 6 -17 8 -20 4
-4 -4 -1 -11 7 -16 13 -8 13 -10 -1 -10 -18 0 -28 32 -20 65 4 18 5 18 9 2 2
-9 8 -15 13 -11z m7006 -172 c-9 -9 -28 6 -21 18 4 6 10 6 17 -1 6 -6 8 -13 4
-17z m1480 -646 c-3 -8 -6 -5 -6 6 -1 11 2 17 5 13 3 -3 4 -12 1 -19z m0 -40
c-3 -8 -6 -5 -6 6 -1 11 2 17 5 13 3 -3 4 -12 1 -19z m-11754 -225 c-7 -2 -19
-2 -25 0 -7 3 -2 5 12 5 14 0 19 -2 13 -5z m11764 -845 c-3 -8 -6 -5 -6 6 -1
11 2 17 5 13 3 -3 4 -12 1 -19z m2 -450 c-1 -24 -5 -54 -9 -68 -6 -18 -8 -7
-9 43 -1 38 3 67 9 67 6 0 10 -19 9 -42z m19 -355 c-10 -2 -26 -2 -35 0 -10 3
-2 5 17 5 19 0 27 -2 18 -5z m-11913 -222 c-3 -12 -11 -19 -16 -16 -5 4 -5 14
2 26 13 26 23 18 14 -10z m11882 -143 c-3 -8 -6 -5 -6 6 -1 11 2 17 5 13 3 -3
4 -12 1 -19z m13 -90 c0 -19 -2 -20 -10 -8 -13 19 -13 30 0 30 6 0 10 -10 10
-22z m-13 -285 c-3 -10 -5 -2 -5 17 0 19 2 27 5 18 2 -10 2 -26 0 -35z m0 -95
c-3 -7 -5 -2 -5 12 0 14 2 19 5 13 2 -7 2 -19 0 -25z m0 -630 c-2 -18 -4 -6
-4 27 0 33 2 48 4 33 2 -15 2 -42 0 -60z m13 -138 c0 -11 -7 -20 -15 -20 -17
0 -18 2 -9 24 9 23 24 20 24 -4z m-13 -297 c-3 -10 -5 -2 -5 17 0 19 2 27 5
18 2 -10 2 -26 0 -35z"/>
<path d="M5328 5733 c12 -2 30 -2 40 0 9 3 -1 5 -23 4 -22 0 -30 -2 -17 -4z"/>
<path d="M400 4920 c0 -19 3 -21 12 -12 9 9 9 15 0 24 -9 9 -12 7 -12 -12z"/>
<path d="M12442 1420 c0 -14 2 -19 5 -12 2 6 2 18 0 25 -3 6 -5 1 -5 -13z"/>
<path d="M12435 460 c-3 -5 -1 -10 4 -10 6 0 11 5 11 10 0 6 -2 10 -4 10 -3 0
-8 -4 -11 -10z"/>
</g>
</svg>
