<?xml version="1.0" encoding="utf-8"?>
<!-- Generator: Adobe Illustrator 19.2.1, SVG Export Plug-In . SVG Version: 6.00 Build 0)  -->
<svg version="1.1" id="layer" xmlns="http://www.w3.org/2000/svg" xmlns:xlink="http://www.w3.org/1999/xlink" x="0px" y="0px"
	 viewBox="0 0 652 652" style="enable-background:new 0 0 652 652;" xml:space="preserve">
<style type="text/css">
	.st0{fill:#EE3042;}
	.st1{fill:#00BBE3;}
	.st2{fill:#EE3042;enable-background:new    ;}
</style>
<g id="g751">
	<path id="path753" class="st0" d="M29.5,398h-5.6c-1.5,0-2.7-1.2-2.7-2.7s1.2-2.7,2.7-2.7h17.2c1.5,0,2.7,1.2,2.7,2.7
		s-1.2,2.7-2.7,2.7h-5.6v18.6c0,1.6-1.3,2.9-2.9,2.9c-1.6,0-3-1.3-3-2.9V398z"/>
	<path id="path755" class="st0" d="M48.4,395.2c0-1.6,1.3-2.9,2.9-2.9c1.6,0,2.9,1.3,2.9,2.9v7.8h10.9v-7.8c0-1.6,1.3-2.9,2.9-2.9
		s2.9,1.3,2.9,2.9v21.3c0,1.6-1.3,2.9-2.9,2.9c-1.6,0-2.9-1.3-2.9-2.9v-8H54.3v8c0,1.6-1.3,2.9-2.9,2.9s-2.9-1.3-2.9-2.9L48.4,395.2
		L48.4,395.2z"/>
	<path id="path757" class="st0" d="M77.8,416.3v-20.8c0-1.6,1.3-2.9,2.9-2.9h14.8c1.4,0,2.6,1.2,2.6,2.6s-1.2,2.6-2.6,2.6H83.7v5.4
		h10.2c1.4,0,2.6,1.2,2.6,2.6c0,1.4-1.2,2.6-2.6,2.6H83.7v5.6h12.1c1.4,0,2.6,1.2,2.6,2.6c0,1.4-1.2,2.6-2.6,2.6h-15
		C79.1,419.2,77.8,417.9,77.8,416.3z"/>
	<path id="path759" class="st0" d="M121.8,397.9h-5.6c-1.5,0-2.7-1.2-2.7-2.7s1.2-2.7,2.7-2.7h17.2c1.5,0,2.7,1.2,2.7,2.7
		s-1.2,2.7-2.7,2.7h-5.6v18.6c0,1.6-1.3,2.9-2.9,2.9s-2.9-1.3-2.9-2.9L121.8,397.9L121.8,397.9z"/>
	<path id="path761" class="st0" d="M163,401.3L163,401.3c0-2.6-0.8-4.7-2.3-6.2c-1.7-1.7-4.4-2.7-7.8-2.7h-9.3
		c-1.6,0-2.9,1.3-2.9,2.9v21.1c0,1.6,1.3,2.9,2.9,2.9s2.9-1.3,2.9-2.9v-5.8h4.7l5.7,7.2c0.7,0.9,1.6,1.5,2.9,1.5
		c1.4,0,2.7-1.1,2.7-2.7c0-0.9-0.4-1.5-1-2.3l-4.1-5C160.8,408.1,163,405.5,163,401.3z M157,401.6c0,2.3-1.6,3.8-4.5,3.8h-5.9v-7.7
		h5.8C155.3,397.8,157,399.1,157,401.6C157,401.6,157,401.6,157,401.6z"/>
	<path id="path763" class="st0" d="M193,415.3l-9.4-21c-0.7-1.4-1.8-2.3-3.4-2.3h-0.3c-1.6,0-2.7,0.9-3.4,2.3l-9.3,21.1
		c-0.2,0.4-0.4,0.8-0.4,1.3c0,1.5,1.2,2.7,2.7,2.7c1.2,0,2.2-0.7,2.7-1.9l1.9-4.4h11.8l1.8,4.2c0.5,1.2,1.4,2,2.8,2
		c1.6,0,2.7-1.3,2.7-2.8C193.3,416.1,193.2,415.7,193,415.3z M176.3,407.9l3.7-8.8l3.7,8.8H176.3z"/>
	<path id="path765" class="st0" d="M200.8,417.1l-8.7-20.7c-0.2-0.5-0.4-0.9-0.4-1.4c0-1.6,1.3-2.9,2.9-2.9c1.5,0,2.5,0.9,3,2
		l6.7,17.3l6.7-17.5c0.4-1,1.4-1.9,2.8-1.9c1.6,0,2.9,1.2,2.9,2.8c0,0.5-0.2,1-0.3,1.3l-8.7,21c-0.6,1.4-1.7,2.3-3.3,2.3h-0.4
		C202.6,419.5,201.5,418.6,200.8,417.1z"/>
	<path id="path767" class="st0" d="M221.8,416.1v-20.8c0-1.6,1.3-2.9,2.9-2.9h14.8c1.4,0,2.6,1.2,2.6,2.6c0,1.4-1.2,2.6-2.6,2.6
		h-11.9v5.4h10.2c1.4,0,2.6,1.2,2.6,2.6c0,1.4-1.2,2.6-2.6,2.6h-10.2v5.6h12.1c1.4,0,2.6,1.2,2.6,2.6c0,1.4-1.2,2.6-2.6,2.6h-15
		C223.1,419,221.8,417.7,221.8,416.1z"/>
	<path id="path769" class="st0" d="M247.7,395c0-1.6,1.3-2.9,2.9-2.9s2.9,1.3,2.9,2.9v18.7h10.9c1.5,0,2.7,1.2,2.7,2.6
		c0,1.5-1.2,2.7-2.6,2.7h-13.8c-1.6,0-2.9-1.3-2.9-2.9L247.7,395z"/>
	<path id="path771" class="st0" d="M294.5,392.2h-8c-1.6,0-2.9,1.3-2.9,2.9v21.1c0,1.6,1.3,2.9,2.9,2.9c1.6,0,2.9-1.3,2.9-2.9v-5.3
		h4.4c6,0,10.8-3.2,10.8-9.4v-0.1C304.7,396,300.8,392.2,294.5,392.2z M298.7,401.7c0,2.3-1.7,4-4.7,4h-4.7v-8.1h4.5
		c2.9,0,4.8,1.4,4.8,4L298.7,401.7L298.7,401.7z"/>
	<path id="path773" class="st0" d="M331.7,401.1L331.7,401.1c0-2.6-0.8-4.7-2.3-6.2c-1.7-1.7-4.4-2.7-7.8-2.7h-9.3
		c-1.6,0-2.9,1.3-2.9,2.9v21.1c0,1.6,1.3,2.9,2.9,2.9c1.6,0,2.9-1.3,2.9-2.9v-5.8h4.7l5.7,7.2c0.7,0.9,1.6,1.5,2.9,1.5
		c1.4,0,2.7-1.1,2.7-2.7c0-0.9-0.4-1.5-1-2.3l-4.1-5C329.6,407.9,331.7,405.3,331.7,401.1z M325.7,401.4c0,2.3-1.6,3.8-4.5,3.8h-5.9
		v-7.7h5.8C324,397.5,325.7,398.8,325.7,401.4C325.7,401.3,325.7,401.4,325.7,401.4z"/>
	<path id="path775" class="st0" d="M350.5,391.7c-8.2,0-14.2,6.2-14.2,13.9v0.1c0,7.6,5.9,13.7,14.2,13.7s14.2-6.2,14.2-13.9v-0.1
		C364.6,397.8,358.7,391.7,350.5,391.7z M358.4,405.6c0,4.5-3.2,8.3-8,8.3s-8.1-3.8-8.1-8.4v-0.1c0-4.5,3.3-8.3,8-8.3
		C355,397.1,358.4,400.9,358.4,405.6L358.4,405.6z"/>
	<path id="path777" class="st0" d="M370.2,395.1c0-1.6,1.3-2.9,2.9-2.9h14.9c1.5,0,2.7,1.2,2.7,2.6c0,1.5-1.2,2.7-2.6,2.7h-12v5.7
		h10.3c1.5,0,2.7,1.2,2.7,2.6c0,1.5-1.2,2.7-2.6,2.7h-10.3v7.6c0,1.6-1.3,2.9-2.9,2.9c-1.6,0-2.9-1.3-2.9-2.9L370.2,395.1z"/>
	<path id="path779" class="st0" d="M395.6,415.9v-20.8c0-1.6,1.3-2.9,2.9-2.9h14.8c1.4,0,2.6,1.2,2.6,2.6s-1.2,2.6-2.6,2.6h-11.9
		v5.4h10.2c1.4,0,2.6,1.2,2.6,2.6c0,1.4-1.2,2.6-2.6,2.6h-10.2v5.6h12.1c1.4,0,2.6,1.2,2.6,2.6c0,1.4-1.2,2.6-2.6,2.6h-15
		C397,418.8,395.6,417.5,395.6,415.9z"/>
	<path id="path781" class="st0" d="M421.1,415.9c-0.7-0.5-1.1-1.3-1.1-2.2c0-1.5,1.2-2.7,2.7-2.7c0.8,0,1.3,0.2,1.7,0.5
		c2,1.5,4.2,2.4,6.8,2.4c2.4,0,3.8-1,3.8-2.5v-0.1c0-1.5-0.9-2.3-5.4-3.3c-5.4-1.4-8.9-2.9-8.9-8.1v-0.1c0-4.8,3.9-8,9.4-8
		c3.2,0,6,0.8,8.4,2.3c0.7,0.4,1.3,1.2,1.3,2.3c0,1.5-1.2,2.7-2.7,2.7c-0.6,0-1-0.2-1.5-0.4c-1.9-1.1-3.8-1.8-5.6-1.8
		c-2.3,0-3.4,1-3.4,2.3v0.1c0,1.7,1.1,2.3,5.7,3.5c5.4,1.4,8.4,3.3,8.4,8v0.1c0,5.3-4,8.3-9.8,8.3
		C427.6,419.1,424,418.1,421.1,415.9z"/>
	<path id="path783" class="st0" d="M445.8,415.9c-0.7-0.5-1.1-1.3-1.1-2.2c0-1.5,1.2-2.7,2.7-2.7c0.8,0,1.3,0.2,1.7,0.5
		c2,1.5,4.2,2.4,6.8,2.4c2.4,0,3.8-1,3.8-2.5v-0.1c0-1.5-0.9-2.3-5.4-3.3c-5.4-1.4-8.9-2.9-8.9-8.1v-0.1c0-4.8,3.9-8,9.4-8
		c3.2,0,6,0.8,8.4,2.3c0.7,0.4,1.3,1.2,1.3,2.3c0,1.5-1.2,2.7-2.7,2.7c-0.6,0-1-0.2-1.5-0.4c-1.9-1.1-3.8-1.8-5.6-1.8
		c-2.3,0-3.4,1-3.4,2.3v0.1c0,1.7,1.1,2.3,5.7,3.5c5.4,1.4,8.4,3.3,8.4,8v0.1c0,5.3-4,8.3-9.8,8.3
		C452.4,419.1,448.9,418,445.8,415.9z"/>
	<path id="path785" class="st0" d="M471.4,394.7c0-1.6,1.3-2.9,2.9-2.9c1.6,0,2.9,1.3,2.9,2.9V416c0,1.6-1.3,2.9-2.9,2.9
		c-1.6,0-2.9-1.3-2.9-2.9V394.7z"/>
	<path id="path787" class="st0" d="M497.4,391.5c-8.2,0-14.2,6.2-14.2,13.9v0.1c0,7.6,5.9,13.7,14.2,13.7s14.2-6.2,14.2-13.9v-0.1
		C511.5,397.7,505.7,391.5,497.4,391.5z M505.4,405.4c0,4.5-3.2,8.3-8,8.3s-8.1-3.8-8.1-8.4v-0.1c0-4.5,3.3-8.3,8-8.3
		C502,396.9,505.4,400.7,505.4,405.4L505.4,405.4z"/>
	<path id="path789" class="st0" d="M517.2,394.7c0-1.6,1.3-2.9,2.9-2.9h0.6c1.4,0,2.3,0.7,3,1.7l11.3,14.9v-13.8
		c0-1.6,1.3-2.9,2.9-2.9c1.6,0,2.9,1.3,2.9,2.9v21.3c0,1.6-1.3,2.9-2.9,2.9h-0.2c-1.4,0-2.3-0.7-3-1.7L523,401.6v14.3
		c0,1.6-1.3,2.9-2.9,2.9c-1.6,0-2.9-1.3-2.9-2.9V394.7z"/>
	<path id="path791" class="st0" d="M572,414.8l-9.4-21c-0.7-1.4-1.8-2.3-3.4-2.3h-0.4c-1.6,0-2.7,0.9-3.4,2.3l-9.3,21.1
		c-0.2,0.4-0.4,0.8-0.4,1.3c0,1.5,1.2,2.7,2.7,2.7c1.2,0,2.2-0.7,2.7-1.9l1.9-4.4h11.8l1.8,4.2c0.5,1.2,1.4,2,2.8,2
		c1.6,0,2.7-1.3,2.7-2.8C572.3,415.6,572.3,415.2,572,414.8z M555.4,407.5l3.7-8.8l3.7,8.8H555.4z"/>
	<path id="path793" class="st0" d="M577.3,394.6c0-1.6,1.3-2.9,2.9-2.9c1.6,0,2.9,1.3,2.9,2.9v18.7H594c1.5,0,2.7,1.2,2.7,2.6
		c0,1.5-1.2,2.7-2.6,2.7h-13.8c-1.6,0-2.9-1.3-2.9-2.9L577.3,394.6z"/>
	<path id="path795" class="st0" d="M600.8,415.7c-0.7-0.5-1.1-1.3-1.1-2.2c0-1.5,1.2-2.7,2.7-2.7c0.8,0,1.3,0.2,1.7,0.5
		c2,1.5,4.2,2.4,6.8,2.4c2.4,0,3.8-1,3.8-2.5v-0.1c0-1.5-0.9-2.3-5.4-3.3c-5.4-1.4-8.9-2.9-8.9-8.1v-0.1c0-4.8,3.9-8,9.4-8
		c3.2,0,6,0.8,8.4,2.3c0.7,0.4,1.3,1.2,1.3,2.3c0,1.5-1.2,2.7-2.7,2.7c-0.6,0-1-0.2-1.5-0.4c-1.9-1.1-3.8-1.8-5.6-1.8
		c-2.3,0-3.4,1-3.4,2.3v0.1c0,1.7,1.1,2.3,5.7,3.5c5.4,1.4,8.4,3.3,8.4,8v0.1c0,5.3-4,8.3-9.8,8.3
		C607.4,418.9,603.8,417.9,600.8,415.7z"/>
	<g id="g797">
		<path id="path799" class="st0" d="M616.9,328.2H24.8c-2.2,0-3.9,1.7-3.9,3.9v43.6c0,2.2,1.7,3.9,3.9,3.9H617
			c2.2,0,3.9-1.7,3.9-3.9v-43.6C620.8,329.9,619.1,328.2,616.9,328.2z M452.3,345.2H446v20.5c0,1.8-1.4,3.2-3.2,3.2
			c-1.8,0-3.2-1.4-3.2-3.2v-20.5h-6.2c-1.6,0-3-1.3-3-3c0-1.6,1.3-3,3-3h18.9c1.6,0,3,1.3,3,3C455.2,343.8,453.9,345.2,452.3,345.2z
			 M484.2,349c0,4.6-2.3,7.5-5.9,8.9l4.5,5.4c0.7,0.8,1.1,1.4,1.1,2.5c0,1.8-1.5,3-3,3c-1.5,0-2.5-0.7-3.2-1.7l-6.3-8h-5.1v6.4
			c0,1.8-1.4,3.2-3.2,3.2c-1.8,0-3.2-1.4-3.2-3.2l-0.1-23.2c0-1.8,1.4-3.2,3.2-3.2h10.2c3.7,0,6.6,1,8.6,3
			C483.3,343.8,484.2,346.1,484.2,349L484.2,349L484.2,349z M513.7,368.8c-1.5,0-2.5-0.9-3.1-2.2l-2-4.6h-13l-2,4.8
			c-0.5,1.3-1.6,2-3,2c-1.7,0-3-1.3-3-3c0-0.5,0.2-0.9,0.4-1.4l10.2-23.2c0.7-1.6,2-2.6,3.8-2.6h0.4c1.7,0,3,1,3.7,2.6l10.3,23.2
			c0.2,0.5,0.4,0.9,0.4,1.3C516.8,367.4,515.5,368.8,513.7,368.8z M542.6,343.4l-9.6,23c-0.7,1.6-1.9,2.6-3.6,2.6H529
			c-1.7,0-3-1-3.6-2.6l-9.6-22.8c-0.2-0.5-0.4-1-0.4-1.6c0-1.8,1.4-3.2,3.2-3.2c1.7,0,2.7,1,3.3,2.3l7.4,19l7.4-19.3
			c0.4-1.1,1.6-2,3.1-2c1.7,0,3.2,1.3,3.2,3.1C542.9,342.4,542.8,343,542.6,343.4z M567.4,368.5h-16.5c-1.8,0-3.2-1.4-3.2-3.2
			l-0.1-22.9c0-1.8,1.4-3.2,3.2-3.2h16.3c1.6,0,2.9,1.3,2.9,2.9c0,1.6-1.3,2.9-2.9,2.9H554v5.9h11.2c1.6,0,2.9,1.3,2.9,2.9
			c0,1.6-1.3,2.9-2.9,2.9H554v6.2h13.3c1.6,0,2.9,1.3,2.9,2.9C570.3,367.2,568.9,368.5,567.4,368.5z M593.9,368.5h-15.2
			c-1.8,0-3.2-1.4-3.2-3.2l-0.1-23.2c0-1.8,1.4-3.2,3.2-3.2c1.8,0,3.2,1.4,3.2,3.2v20.6h12c1.6,0,2.9,1.3,2.9,2.9
			C596.9,367.2,595.6,368.5,593.9,368.5z"/>
		<path id="path801" class="st0" d="M472.5,345h-6.4v8.4h6.5c3.2,0,5-1.7,5-4.1v-0.1C477.7,346.5,475.7,345,472.5,345z"/>
		<polygon id="polygon803" class="st0" points="498.1,356.3 506.3,356.3 502.2,346.6 		"/>
	</g>
	<path id="path805" class="st1" d="M66.3,246.8c-8.8,0-16.9,3.5-22.9,9.2l0-25.2c0-3.2-2.6-5.7-5.7-5.7H26.9c-3.2,0-5.7,2.6-5.7,5.7
		s2.6,5.8,5.7,5.7h5l0.1,46.2l0.1,30.1c0,3.2,2.6,5.7,5.7,5.7c3.2,0,5.7-2.6,5.7-5.7l-0.1-30c0-13.4,10.3-24.4,22.9-24.4
		c12.7,0,22.9,10.9,23,24.4l0.1,30.1c0,3.2,2.6,5.7,5.7,5.7c3.2,0,5.7-2.6,5.7-5.7l-0.1-30.1C100.7,262.8,85.3,246.8,66.3,246.8"/>
	<path id="path807" class="st1" d="M177.8,282.5c0-20-16.3-36.2-36.3-36.2c-20,0-36.2,16.3-36.2,36.3c0,20,16.3,36.2,36.3,36.2
		c11.4,0,23.5-5.4,30.6-13.9c2-2.4,1.7-6-0.7-8.1c-2.4-2-6-1.7-8.1,0.7c-5.1,6-13.7,9.8-21.9,9.8c-13.7,0-24.8-11-24.8-24.7
		s11-24.8,24.7-24.8c11.7,0,21.6,8.1,24.1,19l-44.1,0.1c-0.5,1.8-0.8,3.7-0.8,5.7c0,2,0.3,3.9,0.8,5.7l50.5-0.1
		C175.3,288.2,177.8,285.6,177.8,282.5"/>
	<path id="path809" class="st1" d="M187.9,318.3c-3.2,0-5.7-2.6-5.7-5.8l-0.2-81.6c0-3.2,2.6-5.8,5.7-5.8c3.2,0,5.7,2.6,5.7,5.8
		l0.2,81.6C193.7,315.6,191.1,318.3,187.9,318.3"/>
	<path id="path811" class="st1" d="M206.9,318.2c-3.2,0-5.7-2.6-5.7-5.8l-0.1-81.6c0-3.2,2.6-5.8,5.7-5.8c3.2,0,5.7,2.6,5.7,5.8
		l0.1,81.6C212.6,315.6,210,318.2,206.9,318.2"/>
	<path id="path813" class="st1" d="M254,246.1c-20,0-36.2,16.3-36.2,36.3c0,20,16.3,36.2,36.3,36.2c20,0,36.2-16.3,36.2-36.3
		C290.3,262.3,274,246.1,254,246.1z M254.1,307.1c-13.7,0-24.8-11.1-24.8-24.7c0-13.7,11.1-24.8,24.7-24.8
		c13.7,0,24.8,11.1,24.8,24.7C278.9,296,267.8,307.1,254.1,307.1z"/>
	<path id="path815" class="st1" d="M614.8,224.9h-10.4c-3.2,0-5.7,2.6-5.7,5.7l0.1,25.6c-6.5-6-15.2-9.7-24.8-9.7
		c-20,0-36.2,16.2-36.2,36c0,19.8,16.3,35.9,36.3,35.9c20,0,36.2-16.1,36.2-35.9v-0.1l-0.1-46h4.6c3.2,0,5.7-2.5,5.7-5.7
		C620.6,227.5,618,224.9,614.8,224.9z M574.1,307c-13.7,0-24.8-11-24.8-24.5c0-13.6,11.1-24.6,24.7-24.6c13.7,0,24.8,11,24.8,24.5
		C598.8,296,587.7,307,574.1,307z"/>
	<path id="path817" class="st1" d="M433.8,246.1c-20,0-36.2,16.3-36.2,36.3c0,20,16.3,36.2,36.3,36.2c20,0,36.2-16.3,36.2-36.3
		C470.1,262.3,453.8,246,433.8,246.1z M434,307.1c-13.7,0-24.8-11.1-24.8-24.7c0-13.7,11.1-24.8,24.7-24.8
		c13.7,0,24.8,11.1,24.8,24.7C458.7,296,447.6,307.1,434,307.1z"/>
	<path id="path819" class="st1" d="M510.7,246c-20,0-36.2,16.3-36.2,36.3l0.1,30.1c0,3.2,2.6,5.7,5.7,5.7c3.2,0,5.7-2.6,5.7-5.7
		l-0.1-30.1c0-13.7,11.1-24.8,24.7-24.8c3.2,0,5.7-2.6,5.7-5.7C516.4,248.6,513.9,246,510.7,246"/>
	<path id="path821" class="st1" d="M387.1,247.8c-3.2,0-5.6,2.6-5.7,5.7c0,0.7,0,1.5,0,2.2c0,3.9,0,7.8,0,11.8c0,8.4,0,17,0.1,25.4
		c0,5.4-2.5,10.4-7.7,12.7c-6.5,2.9-14.9,0.2-17.9-6.5c-1.5-3.3-1.1-7.2-1.1-10.7c0-4.9,0-9.8,0-14.7c0-1.9,0-3.7,0-5.6
		c0-1.3,0.1-2.5-0.4-3.7c-1.3-3.3-5.4-4.7-8.4-2.8c-1.9,1.2-2.6,3.2-2.7,5.3c0,8.3,0,16.6,0.1,24.9c0,4.7,0.6,9.3,2.9,13.5
		c3.4,6.3,9.5,10.9,16.6,12.3c6.5,1.3,13.5,0.2,19-3.4c6-3.9,10.1-10.4,11-17.6c0.3-2.6,0.2-5.3,0.2-8c0-4.5,0-9.2,0-13.7
		c0-7.1,0.2-14.3,0-21.6C392.8,250.4,390.3,247.8,387.1,247.8"/>
	<path id="path823" class="st1" d="M345.1,311.1c-2-2.7-3.6-5.7-4.5-8.9c-6.2,7.6-19.5,5.7-23-3.5c-1.4-3.5-0.8-8-0.8-11.7
		c0-10.7,0-21.5-0.1-32.2c0-2.2-0.4-4.1-2.2-5.6c-3.6-2.8-9-0.3-9.2,4.2c-0.2,3.2,0,6.6,0,9.8c0,10.2,0,20.4,0.1,30.6
		c0,7.8,3.6,15.3,10.1,19.9c6.8,5,16.4,6,24.3,2.9c2.4-1,4.7-2.3,6.6-4C345.8,312,345.4,311.6,345.1,311.1"/>
	<path id="path825" class="st1" d="M526.5,318.8c-3.2,0-5.7-2.6-5.7-5.8l-0.1-81.6c0-3.2,2.6-5.8,5.7-5.8c3.2,0,5.7,2.6,5.7,5.8
		l0.1,81.6C532.2,316.1,529.7,318.8,526.5,318.8"/>
</g>
<path id="path5217" class="st2" d="M20.9,224.4"/>
</svg>
