<?xml version="1.0" standalone="no"?>
<!DOCTYPE svg PUBLIC "-//W3C//DTD SVG 20010904//EN"
 "http://www.w3.org/TR/2001/REC-SVG-20010904/DTD/svg10.dtd">
<svg version="1.0" xmlns="http://www.w3.org/2000/svg"
 width="1072.000000pt" height="1280.000000pt" viewBox="0 0 1072.000000 1280.000000"
 preserveAspectRatio="xMidYMid meet">
<metadata>
Created by potrace 1.15, written by Peter Selinger 2001-2017
</metadata>
<g transform="translate(0.000000,1280.000000) scale(0.100000,-0.100000)"
fill="#000000" stroke="none">
<path d="M5950 12482 c0 -62 -11 -82 -46 -82 -27 0 -80 43 -89 70 -4 11 -12
20 -20 20 -8 0 -17 9 -20 21 -6 17 -12 20 -33 14 -15 -4 -48 -9 -74 -12 -42
-4 -52 -11 -93 -59 -37 -42 -53 -54 -76 -54 -19 0 -29 5 -29 15 0 8 -7 15 -15
15 -9 0 -19 8 -22 18 -10 26 -23 32 -80 32 -32 0 -53 -5 -56 -12 -3 -10 -9 -8
-24 5 -26 22 -49 22 -80 -3 -17 -13 -41 -20 -69 -20 l-44 0 0 -55 c0 -42 -5
-60 -20 -75 -21 -21 -40 -19 -40 4 0 14 -85 97 -116 113 -10 6 -41 14 -68 17
-41 7 -51 4 -71 -14 -29 -27 -72 -18 -86 18 l-10 25 -15 -21 c-18 -26 -46 -28
-84 -5 -37 22 -80 6 -80 -30 0 -30 -18 -47 -48 -47 -32 0 -135 46 -189 83 -45
32 -44 32 -206 9 -44 -6 -63 -5 -78 6 -12 8 -37 12 -62 10 -23 -1 -57 3 -74
11 -36 15 -63 9 -63 -12 0 -28 -41 -107 -61 -117 -16 -9 -21 -7 -29 15 -6 15
-23 40 -39 56 -26 26 -36 29 -94 29 -45 0 -68 -5 -77 -15 -7 -8 -23 -15 -35
-15 -12 0 -37 -3 -54 -6 -26 -5 -31 -11 -31 -35 0 -27 -22 -59 -41 -59 -5 0
-9 11 -9 24 0 49 -12 84 -31 89 -10 3 -19 12 -19 21 0 10 -9 16 -26 16 -15 0
-23 -4 -19 -11 15 -23 -7 -57 -55 -88 -28 -18 -53 -31 -56 -28 -2 2 -7 27 -11
55 -4 38 -10 52 -24 55 -11 3 -19 12 -19 20 0 24 -33 26 -58 3 -15 -13 -39
-21 -70 -22 -37 -2 -48 -6 -51 -20 -9 -47 -50 -58 -86 -24 -17 16 -27 19 -46
12 -27 -10 -148 21 -189 49 -24 16 -25 15 -51 -25 -14 -23 -29 -59 -32 -81 -4
-22 -15 -46 -24 -53 -16 -12 -19 -9 -27 32 -7 35 -14 46 -28 46 -11 0 -18 7
-18 19 0 15 -9 20 -42 24 -24 2 -72 10 -107 16 -57 11 -66 10 -74 -4 -5 -9
-25 -23 -44 -31 -31 -13 -38 -13 -59 1 -13 8 -24 20 -24 25 0 5 -19 -2 -42
-15 -51 -29 -142 -35 -152 -10 -8 22 -21 18 -34 -10 -15 -32 -41 -32 -108 1
-78 38 -139 35 -211 -10 -53 -33 -73 -37 -73 -15 0 13 -49 62 -77 77 -28 15
-158 15 -186 0 -12 -6 -32 -22 -44 -35 -27 -28 -37 -29 -62 -4 -18 18 -19 18
-23 -31 -5 -45 -18 -67 -40 -68 -5 0 -8 11 -8 24 0 16 -7 27 -20 31 -11 3 -20
12 -20 19 0 8 -14 19 -30 26 -17 7 -35 21 -41 32 -13 23 -33 19 -35 -8 -3 -63
-5 -74 -20 -88 -22 -22 -34 -20 -34 7 0 12 -16 37 -35 56 l-34 33 -22 -36
c-26 -45 -52 -60 -78 -46 -11 5 -21 15 -23 22 -7 21 -82 -20 -138 -75 l-50
-51 0 -137 c0 -149 2 -145 -65 -184 -16 -10 -16 -16 -2 -91 9 -45 13 -100 10
-122 -5 -38 -2 -44 36 -82 37 -37 41 -45 41 -91 0 -44 -3 -51 -29 -67 -29 -17
-29 -18 -10 -41 23 -28 24 -75 3 -156 -30 -114 -30 -131 6 -167 l32 -32 -6
-100 c-11 -181 -18 -230 -35 -249 -15 -18 -14 -20 5 -36 19 -15 44 -52 44 -65
0 -3 -11 -15 -24 -28 -15 -15 -26 -40 -30 -70 -6 -41 -5 -47 13 -53 13 -4 23
-18 27 -41 6 -32 2 -53 -33 -168 -5 -16 -2 -18 22 -12 26 7 27 5 21 -20 -6
-24 -5 -26 16 -20 13 4 51 10 85 13 72 7 79 0 69 -70 -11 -68 -14 -70 -124
-77 -111 -7 -132 -17 -132 -62 0 -16 -4 -38 -10 -48 -10 -19 3 -63 36 -122 8
-15 25 -60 39 -100 l24 -73 -24 -21 c-13 -12 -29 -24 -35 -26 -7 -2 -10 -49
-8 -147 3 -138 4 -144 21 -127 16 17 17 16 17 -18 0 -27 3 -34 15 -30 8 3 17
14 20 25 4 11 19 26 35 34 32 16 135 21 145 6 10 -17 -23 -38 -70 -45 l-45 -7
-2 -57 c-1 -31 -1 -83 0 -116 3 -66 -11 -91 -59 -101 -26 -6 -29 -11 -29 -47
0 -35 6 -47 43 -80 23 -22 54 -46 69 -54 57 -30 23 -64 -61 -64 -47 0 -51 -2
-51 -24 0 -49 13 -89 32 -93 10 -3 18 -11 18 -19 0 -7 7 -17 16 -22 13 -8 14
-13 4 -31 -9 -19 -9 -26 5 -41 31 -35 16 -61 -52 -89 -51 -21 -63 -30 -63 -48
0 -13 -4 -23 -9 -23 -5 0 -11 -23 -13 -51 -3 -45 0 -53 19 -62 12 -5 19 -15
16 -23 -3 -8 1 -14 9 -14 8 0 47 -24 86 -52 73 -53 87 -79 60 -106 -18 -18
-86 -14 -116 6 -51 35 -59 38 -42 16 8 -10 32 -38 53 -62 42 -47 41 -49 -11
-114 -26 -33 -37 -62 -60 -163 -4 -16 -6 -74 -4 -129 3 -87 6 -99 23 -103 10
-3 19 -12 19 -19 0 -8 12 -19 26 -24 23 -9 26 -14 20 -43 -3 -17 -13 -36 -22
-42 -39 -24 -74 -58 -74 -72 0 -8 11 -28 24 -43 23 -28 23 -30 20 -242 -2
-117 -8 -261 -15 -320 -10 -93 -9 -111 5 -139 25 -51 20 -84 -19 -128 -30 -33
-33 -40 -20 -51 18 -15 22 -199 4 -217 -8 -8 -8 -13 0 -17 15 -10 14 -129 -1
-144 -9 -9 -6 -12 13 -12 32 0 42 -9 29 -25 -8 -9 -1 -14 27 -19 35 -6 41 -13
71 -72 37 -73 32 -100 -17 -110 -24 -5 -29 -12 -34 -45 -6 -46 -32 -89 -57
-96 -13 -4 -20 -21 -27 -76 -11 -84 -8 -107 18 -107 12 0 19 -7 19 -20 0 -11
6 -20 13 -20 16 0 77 -74 77 -95 0 -9 -9 -34 -20 -56 -15 -29 -29 -41 -50 -45
-19 -4 -42 -23 -65 -53 l-37 -46 26 -10 c16 -5 25 -14 21 -22 -3 -9 6 -16 25
-20 17 -3 30 -9 30 -12 0 -4 -13 -28 -30 -54 -28 -45 -29 -50 -19 -97 6 -27
15 -53 20 -56 18 -11 59 -117 53 -136 -3 -10 -23 -27 -44 -38 -21 -11 -41 -24
-44 -29 -3 -5 17 -37 44 -71 33 -42 50 -72 50 -91 0 -15 5 -39 11 -51 14 -32
-3 -76 -35 -88 -24 -9 -76 -68 -76 -87 0 -5 13 -22 30 -38 37 -35 38 -59 5
-81 -30 -20 -33 -44 -5 -44 11 0 20 -4 20 -10 0 -5 -9 -10 -20 -10 -17 0 -20
-7 -20 -50 0 -38 4 -50 15 -50 8 0 15 -7 15 -15 0 -8 9 -23 21 -33 25 -21 59
-84 59 -110 0 -38 -30 -49 -81 -28 -10 5 -19 -1 -26 -17 -12 -25 -8 -51 23
-167 24 -92 30 -287 10 -335 -9 -21 -16 -53 -16 -71 0 -27 4 -34 20 -34 13 0
20 -7 20 -19 0 -13 8 -21 22 -23 21 -3 23 -9 26 -80 3 -95 -12 -118 -81 -118
l-43 0 8 -73 c4 -39 5 -90 2 -113 -6 -44 1 -55 99 -159 67 -71 62 -115 -19
-192 -53 -51 -55 -53 -40 -75 20 -29 20 -67 0 -89 -17 -19 -12 -39 10 -39 8 0
16 -9 19 -19 3 -14 29 -27 91 -47 62 -20 86 -33 86 -45 0 -39 -33 -46 -172
-34 l-86 8 -7 -49 c-3 -27 -10 -59 -16 -72 -17 -42 -10 -80 21 -115 35 -40 37
-57 11 -81 -19 -17 -19 -19 6 -79 14 -34 31 -69 39 -78 23 -25 17 -67 -13 -95
-29 -27 -63 -74 -63 -86 0 -5 12 -8 26 -8 21 0 24 -4 19 -20 -5 -17 -2 -20 21
-20 l27 0 -6 -71 c-7 -82 -26 -119 -62 -119 -31 0 -35 -36 -5 -45 11 -3 20
-13 20 -20 0 -8 17 -18 38 -24 20 -5 61 -15 89 -22 71 -17 69 -46 -2 -63 -16
-4 -38 -15 -47 -23 -17 -15 -16 -17 7 -39 14 -13 25 -32 25 -43 0 -26 -34
-103 -51 -118 -11 -9 -13 -38 -7 -155 18 -390 23 -437 41 -419 18 18 26 13 29
-20 l3 -31 69 61 69 61 85 0 c74 0 91 -3 121 -24 37 -25 165 -56 231 -56 22 0
48 -8 63 -20 14 -11 27 -20 30 -20 2 0 21 14 42 30 21 17 45 30 54 30 9 0 45
-14 81 -29 48 -22 69 -27 83 -20 22 13 177 6 232 -9 35 -10 42 -9 61 9 25 23
89 25 141 4 19 -8 50 -15 69 -15 21 0 38 -7 47 -20 7 -10 27 -26 43 -34 28
-15 29 -15 42 11 l14 26 92 -8 c163 -13 171 -13 174 12 2 13 17 32 33 43 16
12 29 28 29 36 0 16 35 54 49 54 5 0 12 -13 16 -30 5 -21 13 -30 26 -30 13 0
19 -7 19 -21 0 -21 2 -22 133 -15 72 3 154 9 181 12 29 4 64 1 87 -6 33 -11
45 -10 106 11 37 13 79 31 92 41 13 10 34 18 47 18 19 0 24 -5 24 -25 0 -18 5
-25 20 -25 14 0 20 -7 20 -21 0 -20 3 -21 65 -14 75 8 137 -7 128 -31 -3 -8
-1 -14 5 -14 6 0 12 6 15 13 6 18 19 2 21 -27 0 -14 3 -26 6 -26 2 0 21 16 41
36 49 48 97 50 143 5 18 -17 37 -31 42 -31 15 0 40 31 49 60 16 53 31 60 131
60 85 0 95 -2 123 -26 30 -25 33 -25 56 -10 41 27 100 21 136 -14 31 -29 43
-31 95 -15 7 2 30 -1 53 -7 37 -9 45 -8 96 21 62 35 83 38 125 16 22 -11 30
-23 30 -42 0 -21 3 -24 12 -15 20 20 28 14 28 -19 0 -28 2 -30 16 -18 9 8 27
30 39 49 37 58 64 80 95 80 16 0 31 -4 34 -9 14 -23 150 -91 181 -91 55 0 93
11 98 29 2 10 34 34 71 54 58 32 76 37 132 37 57 0 67 -3 71 -20 3 -11 12 -20
20 -20 8 0 17 -8 20 -17 2 -10 22 -26 44 -37 37 -17 41 -17 58 -2 24 22 58 20
88 -4 14 -11 39 -20 54 -20 28 0 28 1 23 44 -6 38 -3 45 17 60 31 21 44 20 70
-7 15 -15 23 -18 26 -9 3 6 16 12 29 12 14 0 42 9 64 20 22 11 46 20 55 20 8
0 15 4 15 10 0 24 51 22 90 -4 22 -14 46 -26 54 -26 8 0 19 -15 25 -32 6 -18
32 -52 57 -75 42 -39 51 -43 99 -43 45 0 55 4 69 25 15 23 23 25 84 25 38 0
72 -4 78 -10 6 -6 21 -6 42 2 26 10 31 16 25 33 -9 28 -5 65 8 81 15 18 90 18
113 1 17 -13 17 -15 2 -45 l-17 -32 31 0 c27 0 30 -2 20 -19 -5 -11 -10 -21
-10 -23 0 -2 31 -2 68 0 58 3 69 6 77 25 9 20 20 23 110 28 55 3 112 10 128
14 23 6 34 1 68 -30 42 -38 58 -36 59 6 0 44 110 65 170 34 25 -13 30 -22 30
-53 1 -33 2 -35 14 -19 20 25 26 21 26 -18 l0 -35 41 41 c37 37 44 40 77 35
21 -4 63 -10 94 -14 31 -4 65 -15 76 -25 24 -22 29 -21 35 3 4 15 14 20 36 20
28 0 31 3 37 40 9 54 23 63 89 58 44 -4 68 -13 114 -45 54 -37 62 -40 101 -33
26 5 52 18 67 34 13 14 32 26 41 26 19 0 80 -21 99 -33 7 -4 21 -3 32 3 30 16
51 12 51 -9 0 -14 5 -18 20 -14 16 4 20 0 20 -21 0 -17 4 -25 10 -21 6 4 32
12 58 18 51 13 54 21 37 94 -6 27 -3 36 19 58 23 22 33 26 59 20 18 -3 52 -9
77 -12 25 -3 50 -10 57 -15 7 -6 30 -7 53 -3 30 5 40 3 40 -7 0 -12 51 -67 76
-81 7 -4 43 -11 82 -17 56 -8 79 -7 112 5 68 24 103 20 138 -17 l31 -31 128 9
c70 5 179 9 241 9 94 0 112 2 112 16 0 21 20 39 43 39 27 0 73 -29 87 -55 11
-20 16 -21 82 -13 39 5 80 15 91 23 33 23 94 18 142 -10 36 -21 47 -23 79 -14
l36 10 0 90 c0 78 4 100 31 162 16 40 43 89 60 109 35 44 42 117 11 125 -22 5
-46 57 -39 83 3 10 -1 27 -9 37 -21 28 -16 54 16 102 17 24 30 53 30 65 0 13
-20 39 -50 65 -43 39 -50 50 -50 82 0 62 15 87 60 100 22 7 40 18 40 25 0 16
-66 81 -99 98 -14 8 -60 24 -101 36 -41 13 -79 26 -83 30 -22 20 42 75 116 99
53 18 68 46 69 128 0 47 6 78 19 101 11 18 19 35 19 38 0 3 -20 24 -45 48 -25
25 -45 47 -45 51 0 4 9 20 21 36 22 32 20 59 -6 59 -8 0 -15 7 -15 15 0 7 -7
18 -16 23 -34 19 12 92 59 92 14 0 17 5 12 23 -4 12 -9 30 -12 40 -2 10 -15
29 -29 42 -29 29 -30 47 -4 104 15 32 20 65 20 130 0 133 13 192 54 246 41 53
47 85 16 85 -13 0 -20 7 -20 19 0 13 -8 21 -22 23 -15 2 -24 11 -26 25 -5 36
16 62 58 73 l40 11 0 73 c0 60 3 76 20 91 24 22 27 65 5 65 -9 0 -19 8 -22 18
-4 9 -11 20 -16 23 -16 11 3 50 34 68 l29 18 -35 49 c-19 27 -35 59 -35 71 0
25 24 53 46 53 20 0 17 13 -7 28 -17 11 -20 20 -16 47 5 28 2 35 -14 40 -10 4
-19 12 -19 20 0 8 -8 16 -19 20 -10 3 -35 22 -55 41 -36 35 -45 37 -88 19 -13
-5 -18 -2 -18 9 0 18 61 137 109 213 44 69 59 147 61 328 3 181 3 175 -13 175
-8 0 -19 11 -25 25 -10 22 -14 24 -31 13 -11 -7 -23 -10 -26 -6 -10 9 34 108
73 165 79 115 76 106 47 148 -33 49 -32 84 5 130 35 44 39 75 10 75 -13 0 -20
7 -20 19 0 14 -8 21 -27 23 -39 4 -41 33 -4 78 36 45 40 88 11 115 -29 26 -25
55 20 167 32 81 38 103 29 124 -5 15 -7 41 -3 59 4 25 0 38 -20 62 -31 37 -32
61 -7 112 l20 37 -30 28 c-16 15 -29 33 -29 40 0 18 21 36 42 36 15 0 18 8 18
48 0 40 -5 53 -29 76 -16 16 -35 42 -42 59 -12 28 -11 32 16 54 19 17 35 23
51 19 l24 -6 0 102 c0 91 2 104 22 125 18 19 19 23 5 23 -8 0 -27 -4 -41 -10
-32 -12 -33 -4 -3 28 l22 25 -30 -6 c-16 -4 -41 -10 -54 -13 -23 -7 -24 -5
-18 29 7 42 47 96 112 150 l45 38 0 84 0 83 -40 42 c-24 25 -40 51 -40 66 0
17 -6 24 -20 24 -13 0 -20 7 -20 20 0 16 -7 20 -35 20 -51 0 -45 20 30 87 l66
59 -26 12 c-14 7 -24 16 -20 21 3 5 -4 13 -16 16 -18 6 -20 12 -14 41 5 30 2
39 -24 65 -54 54 -40 101 43 148 57 32 82 62 72 87 -3 8 -12 14 -21 14 -8 0
-15 6 -15 14 0 7 -26 26 -57 42 -71 36 -94 76 -96 166 -2 48 3 70 18 92 11 16
18 39 17 51 -2 12 7 34 19 49 19 24 20 32 10 65 -17 57 -14 115 7 133 9 8 41
18 71 21 30 4 58 10 63 15 5 5 7 51 6 103 -3 81 -5 94 -20 91 -11 -2 -18 5
-20 20 -2 13 -9 22 -16 21 -7 -2 -12 9 -12 30 0 26 7 37 38 57 31 20 34 25 17
28 -43 7 -48 11 -35 27 10 12 9 15 -9 15 -25 0 -29 34 -7 66 21 29 7 225 -17
252 -28 31 -21 83 25 169 45 84 47 98 32 266 -5 57 -9 67 -25 67 -12 0 -19 7
-19 20 0 15 -7 20 -29 20 -65 0 -81 27 -33 56 15 10 41 26 59 38 l31 20 -19
24 c-10 14 -19 35 -19 48 0 25 24 54 46 54 30 0 14 159 -18 167 -10 3 -18 12
-18 19 0 8 -7 17 -15 20 -8 4 -15 12 -15 20 0 8 -13 33 -30 55 -29 41 -29 66
0 84 22 14 8 23 -27 18 -37 -6 -38 -6 -20 14 9 11 17 22 17 25 0 3 -23 3 -51
0 -50 -5 -51 -4 -40 17 7 11 34 32 60 46 74 37 96 80 94 182 -2 75 0 85 26
120 40 56 44 79 15 108 -16 16 -24 35 -24 60 0 28 -4 35 -20 35 -13 0 -20 7
-20 19 0 15 -10 19 -51 24 -59 7 -62 9 -54 30 8 19 36 27 98 27 68 0 127 32
127 68 0 15 4 34 9 41 7 10 3 24 -11 43 -20 28 -21 60 -4 100 5 11 1 18 -13
23 -12 3 -21 11 -21 17 0 5 -10 18 -22 27 -29 24 -19 45 37 79 49 29 59 61 27
84 -24 17 -42 51 -42 78 0 15 9 25 30 33 25 9 30 17 30 44 0 24 -5 33 -16 33
-9 0 -18 9 -21 20 -3 11 -9 20 -14 20 -21 0 -7 41 21 62 24 17 30 29 30 60 0
28 -4 38 -16 38 -9 0 -18 9 -21 19 -5 20 -30 31 -75 31 -16 0 -28 4 -28 9 0
12 46 48 71 56 26 9 24 20 -11 53 -32 31 -37 51 -19 69 13 13 4 33 -17 33 -8
0 -14 7 -14 15 0 7 -7 18 -15 22 -24 14 9 51 52 59 l35 7 -6 68 c-3 38 -9 100
-12 137 -5 52 -3 76 10 99 15 30 15 31 -10 37 -16 4 -24 12 -21 21 4 8 -4 15
-19 19 -33 9 -51 48 -36 81 11 23 10 25 -14 25 -21 0 -25 4 -21 20 4 15 0 20
-15 20 -24 0 -56 16 -85 42 l-22 20 -71 -38 c-61 -33 -72 -43 -80 -76 -17 -63
-69 -62 -70 2 -1 23 -2 23 -11 6 -9 -15 -13 -16 -20 -5 -5 8 -9 25 -9 39 l0
24 -16 -22 c-18 -26 -49 -29 -58 -6 -3 8 -10 12 -16 9 -5 -3 -15 6 -20 20
l-10 27 -33 -21 c-68 -43 -87 -51 -125 -53 -32 -1 -48 6 -83 35 -41 33 -46 34
-64 20 -15 -11 -32 -13 -65 -7 -25 4 -73 7 -108 8 -56 0 -66 -3 -88 -27 -27
-30 -65 -35 -84 -12 -7 8 -19 15 -26 15 -8 0 -14 5 -14 10 0 6 -9 10 -20 10
-13 0 -20 7 -20 20 0 12 -7 20 -17 20 -27 0 -42 -13 -61 -51 -13 -27 -24 -35
-49 -37 -24 -2 -33 1 -33 11 0 8 -9 17 -20 20 -11 3 -20 12 -20 21 0 18 -13
20 -40 6 -16 -8 -17 -15 -9 -42 6 -24 5 -38 -6 -55 -22 -33 -43 -29 -62 12 -9
19 -20 32 -24 29 -5 -2 -15 8 -23 23 l-15 28 -1 -31 c0 -48 -19 -64 -85 -73
-81 -12 -133 -35 -144 -63 -5 -13 -17 -30 -26 -38 -28 -23 -45 11 -45 91 0 75
-12 119 -34 119 -7 0 -16 9 -19 20 -4 15 -14 20 -40 20 -29 0 -39 -6 -62 -40
-29 -42 -64 -52 -104 -30 -14 7 -23 5 -36 -10 -27 -29 -60 -24 -104 15 l-39
36 -35 -17 c-33 -16 -37 -16 -61 -1 -34 23 -45 21 -56 -7 -5 -14 -18 -30 -29
-35 -17 -9 -20 -7 -26 18 -3 17 -14 31 -26 34 -10 3 -19 12 -19 21 0 24 -52
21 -67 -4 -7 -11 -29 -22 -50 -25 -21 -3 -53 -13 -71 -21 -18 -8 -48 -14 -66
-14 -28 0 -35 -5 -40 -25 -8 -33 -49 -53 -71 -35 -8 7 -15 18 -15 24 0 18 -68
79 -79 71 -6 -3 -11 -17 -11 -30 0 -24 -41 -65 -66 -65 -15 0 -84 -78 -84 -96
0 -15 -38 -44 -57 -44 -17 0 -16 44 1 78 12 23 12 31 0 52 -7 14 -13 42 -14
63 0 30 -4 37 -20 37 -13 0 -20 7 -20 20 0 17 -7 20 -38 20 -32 0 -41 -5 -50
-25 -12 -25 -24 -29 -89 -25 -23 1 -33 -3 -33 -13 0 -8 -8 -21 -18 -30 -42
-38 -332 14 -332 59 0 11 -22 14 -97 14 -66 1 -106 5 -123 15 -14 8 -46 14
-71 15 -41 0 -48 -3 -53 -24 -7 -27 -33 -41 -51 -26 -6 5 -15 7 -18 4 -4 -4
-11 5 -16 20 -17 44 -31 30 -31 -32z m4407 -4138 c-3 -3 -12 -4 -19 -1 -8 3
-5 6 6 6 11 1 17 -2 13 -5z"/>
</g>
</svg>
